<?xml version="1.0" encoding="UTF-8" standalone="no"?>
<!-- Created with Inkscape (http://www.inkscape.org/) -->

<svg
   xmlns:dc="http://purl.org/dc/elements/1.1/"
   xmlns:cc="http://creativecommons.org/ns#"
   xmlns:rdf="http://www.w3.org/1999/02/22-rdf-syntax-ns#"
   xmlns:svg="http://www.w3.org/2000/svg"
   xmlns="http://www.w3.org/2000/svg"
   xmlns:sodipodi="http://sodipodi.sourceforge.net/DTD/sodipodi-0.dtd"
   xmlns:inkscape="http://www.inkscape.org/namespaces/inkscape"
   version="1.1"
   width="300"
   height="200"
   id="svg2"
   inkscape:version="0.48.3.1 r9886"
   sodipodi:docname="board.svg">
  <sodipodi:namedview
     pagecolor="#ffffff"
     bordercolor="#666666"
     borderopacity="1"
     objecttolerance="10"
     gridtolerance="10"
     guidetolerance="10"
     inkscape:pageopacity="0"
     inkscape:pageshadow="2"
     inkscape:window-width="1366"
     inkscape:window-height="744"
     id="namedview4192"
     showgrid="false"
     inkscape:zoom="4"
     inkscape:cx="173.20378"
     inkscape:cy="140.59704"
     inkscape:window-x="0"
     inkscape:window-y="24"
     inkscape:window-maximized="1"
     inkscape:current-layer="layer3"
     showguides="true"
     inkscape:guide-bbox="true" />
  <defs
     id="defs4" />
  <metadata
     id="metadata7">
    <rdf:RDF>
      <cc:Work
         rdf:about="">
        <dc:format>image/svg+xml</dc:format>
        <dc:type
           rdf:resource="http://purl.org/dc/dcmitype/StillImage" />
        <dc:title />
      </cc:Work>
    </rdf:RDF>
  </metadata>
  <g
     inkscape:groupmode="layer"
     id="layer1"
     inkscape:label="background"
     style="display:inline">
    <rect
       style="fill:#3b83bd;fill-opacity:1;fill-rule:evenodd;stroke:none"
       id="rect3020"
       transform="scale(-1,-1)"
       y="-200"
       x="-300"
       height="200"
       width="300" />
    <path
       inkscape:connector-curvature="0"
       style="fill:#6c3b2a;fill-opacity:1;stroke:none"
       id="path4139"
       d="m 300,0 0,148.95132 -40.03906,0 L 266.6,-2e-5 z" />
    <path
       inkscape:connector-curvature="0"
       style="fill:#6c3b2a;fill-opacity:1;stroke:none"
       id="path4143"
       d="m 0,-2e-5 0,149.09064 40.0312,0 L 33.39995,-2e-5 z" />
    <path
       inkscape:connector-curvature="0"
       style="fill:#fad201;fill-opacity:1;fill-rule:evenodd;stroke:none"
       id="path3828-6"
       d="m 190,130 c 16.56854,0 30,-13.43146 30,-30 0,-16.56854 -13.43146,-30 -30,-30 -4.76403,0 -9.27893,1.11806 -13.28125,3.09375 C 168.80859,77.49788 159.69598,80 150,80 140.30402,80 131.19141,77.49788 123.28125,73.09375 119.27893,71.11806 114.76403,70 110,70 93.43146,70 80,83.43146 80,100 c 0,16.56854 13.43146,30 30,30 4.76403,0 9.27893,-1.11806 13.28125,-3.09375 C 131.19141,122.50212 140.30402,120 150,120 c 9.69598,0 18.80859,2.50212 26.71875,6.90625 C 180.72107,128.88194 185.23597,130 190,130 z" />
    <rect
       style="fill:#924e7d;fill-opacity:1;fill-rule:evenodd;stroke:none"
       id="rect3808"
       transform="scale(-1,-1)"
       y="-200"
       x="-300"
       height="50"
       width="50" />
    <path
       inkscape:connector-curvature="0"
       style="fill:#fad201;fill-opacity:1;fill-rule:evenodd;stroke:none"
       id="path3828"
       d="m 190,200.00002 c 0,-22.0914 -17.90861,-40 -40,-40 -22.09139,0 -40,17.9086 -40,40 l 80,0 z" />
    <path
       inkscape:connector-curvature="0"
       style="fill:#57a63f;fill-opacity:0.94117647;fill-rule:evenodd;stroke:none"
       id="path3830"
       d="m 180,200.00002 c 0,-16.5685 -13.43146,-30 -30,-30 -16.56854,0 -30,13.4315 -30,30 l 60,0 z" />
    <path
       inkscape:connector-curvature="0"
       style="fill:#57a63f;fill-opacity:0.94117647;fill-rule:evenodd;stroke:none"
       id="path3830-3-3"
       d="m 90.000001,99.999998 a 20,20 0 1 1 39.999999,0 20,20 0 0 1 -39.999999,0 z" />
    <path
       inkscape:connector-curvature="0"
       style="fill:none;stroke:#000000;stroke-width:2;stroke-linecap:square;stroke-linejoin:miter;stroke-miterlimit:4;stroke-opacity:1;stroke-dasharray:none"
       id="path3870"
       d="m 250,155.00002 -15,0 0,-154.0099757"
       sodipodi:nodetypes="ccc" />
    <path
       inkscape:connector-curvature="0"
       style="fill:none;stroke:#000000;stroke-width:2;stroke-linecap:square;stroke-linejoin:miter;stroke-miterlimit:4;stroke-opacity:1;stroke-dasharray:none"
       id="path3870-2"
       d="m 50,155.00002 15,0 0,-153.9955757"
       sodipodi:nodetypes="ccc" />
    <path
       inkscape:connector-curvature="0"
       style="fill:#57a63f;fill-opacity:0.94117647;fill-rule:evenodd;stroke:none"
       id="path3830-3-3-3"
       d="m 142.5,100.00006 a 7.5,7.5 0 1 1 15,0 7.5,7.5 0 0 1 -15,0 z" />
    <rect
       style="opacity:0.5;fill:#ffffff;fill-opacity:1;fill-rule:evenodd;stroke:none"
       id="rect3868"
       transform="scale(-1,-1)"
       y="-60.999943"
       x="-300"
       height="61"
       width="32.5" />
    <rect
       style="opacity:0.5;fill:#ffffff;fill-opacity:1;fill-rule:evenodd;stroke:none"
       id="rect3868-7"
       transform="scale(-1,-1)"
       y="-61.000065"
       x="-32.5"
       height="61"
       width="32.5" />
    <path
       inkscape:connector-curvature="0"
       style="fill:#57a63f;fill-opacity:0.94117647;fill-rule:evenodd;stroke:none"
       id="path3830-3"
       d="m 170,99.999998 a 20,20 0 1 1 40,0 20,20 0 0 1 -40,0 z" />
    <rect
       style="fill:#a52019;fill-opacity:1;fill-rule:evenodd;stroke:none"
       id="rect3808-9"
       transform="scale(-1,-1)"
       y="-200"
       x="-50"
       height="50"
       width="50" />
  </g>
  <g
     inkscape:groupmode="layer"
     id="layer2"
     inkscape:label="static"
     style="display:inline">
    <rect
       style="fill:#a52019;fill-opacity:1;fill-rule:evenodd;stroke:none"
       id="rect4033"
       transform="scale(-1,-1)"
       y="-2.1999538"
       x="-190.5"
       height="2.2"
       width="2.2" />
    <rect
       style="fill:#924e7d;fill-opacity:1;fill-rule:evenodd;stroke:none"
       id="rect4033-4"
       transform="scale(-1,-1)"
       y="-2.1999538"
       x="-236.10001"
       height="2.2"
       width="2.2" />
    <rect
       style="fill:#924e7d;fill-opacity:1;fill-rule:evenodd;stroke:none"
       id="rect4062"
       transform="scale(1,-1)"
       y="-2.1999538"
       x="109.5"
       height="2.2"
       width="2.2" />
    <rect
       style="fill:#a52019;fill-opacity:1;fill-rule:evenodd;stroke:none"
       id="rect4064"
       transform="scale(1,-1)"
       y="-2.1999538"
       x="63.899994"
       height="2.2"
       width="2.2" />
    <rect
       style="fill:#6c3b2a;fill-opacity:1;stroke:none"
       id="rect3995"
       transform="scale(-1,-1)"
       y="-150"
       x="-300"
       ry="0"
       height="1.8"
       width="40" />
    <rect
       style="fill:#6c3b2a;fill-opacity:1;stroke:none"
       id="rect3995-3"
       transform="scale(-1,-1)"
       y="-150"
       x="-40"
       ry="0"
       height="1.8"
       width="40" />
    <rect
       style="fill:#6c3b2a;fill-opacity:1;stroke:none"
       id="rect3995-2"
       transform="matrix(-0.04625884,0.99892949,-0.99892949,-0.04625884,0,0)"
       y="-267.2146"
       x="-12.332586"
       ry="0"
       height="1.8"
       width="75" />
    <rect
       style="fill:#6c3b2a;fill-opacity:1;fill-rule:evenodd;stroke:none"
       id="rect4119"
       transform="scale(-1,-1)"
       y="-112.5"
       x="-202.5"
       height="25"
       width="25" />
    <rect
       style="fill:#6c3b2a;fill-opacity:1;fill-rule:evenodd;stroke:none"
       id="rect4119-3"
       transform="scale(-1,-1)"
       y="-112.5"
       x="-122.5"
       height="25"
       width="25" />
    <rect
       style="fill:#6c3b2a;fill-opacity:1;stroke:none"
       id="rect4147"
       transform="matrix(0.04625884,0.99892949,0.99892949,-0.04625884,0,0)"
       y="32.464241"
       x="1.5449775"
       ry="0"
       height="1.8"
       width="75" />
    <rect
       style="fill:#3b83bd;fill-opacity:1;fill-rule:evenodd;stroke:none"
       id="rect4494"
       transform="scale(-1,-1)"
       y="-200"
       x="-170"
       height="3"
       width="40" />
    <rect
       y="0"
       x="-2"
       height="200"
       width="2"
       id="rect3922"
       style="fill:#000000;fill-opacity:1;fill-rule:evenodd;stroke:none" />
    <rect
       y="0"
       x="300"
       height="200"
       width="2"
       id="rect3922-8"
       style="fill:#000000;fill-opacity:1;fill-rule:evenodd;stroke:none;display:inline" />
    <rect
       y="200"
       x="0"
       height="2"
       width="300"
       id="rect3922-80"
       style="fill:#000000;fill-opacity:1;fill-rule:evenodd;stroke:none;display:inline" />
    <rect
       y="-2"
       x="0"
       height="2"
       width="300"
       id="rect3922-80-0"
       style="fill:#000000;fill-opacity:1;fill-rule:evenodd;stroke:none;display:inline" />
  </g>
  <g
     inkscape:groupmode="layer"
     id="layer3"
     inkscape:label="dynamic"
     style="display:inline">
    <g
       id="robot1">
      <path
         sodipodi:nodetypes="ccccc"
         id="robot1-0"
         d="m 255.58224,154.86098 0,40 40,0 0,-40 z"
         style="fill:#000000;fill-opacity:1;fill-rule:evenodd;stroke:none;display:inline"
         inkscape:connector-curvature="0" />
      <path
         sodipodi:nodetypes="cccc"
         inkscape:connector-curvature="0"
         style="fill:#924e7d;fill-opacity:1;fill-rule:evenodd;stroke:none;display:inline"
         d="m 290.98854,181.48598 -30.8126,0 15.4063,-26.625 z"
         id="path3831" />
      <path
         id="path3920"
         d="m 280.95724,181.48598 0,10.75 -10.75,0 0,-10.75 z"
         style="fill:#924e7d;fill-opacity:1;fill-rule:evenodd;stroke:none;display:inline"
         inkscape:connector-curvature="0"
         sodipodi:nodetypes="ccccc" />
    </g>
    <g
       id="robot0"
       style="fill:#000000"
       inkscape:transform-center-y="-9.75">
      <path
         sodipodi:nodetypes="ccccccc"
         inkscape:transform-center-y="-8.8059135"
         d="m 37.21751,191.43842 4,-4 0,-16.90271 -30,0.0609 0,16.84183 4,4 z"
         id="path3837"
         style="fill:#000000;fill-opacity:1;fill-rule:evenodd;stroke:none;display:inline"
         inkscape:connector-curvature="0" />
      <rect
         y="161.10876"
         x="11.140422"
         height="26.176949"
         width="3.104708"
         id="rect3914"
         style="fill:#000000;fill-opacity:1;fill-rule:evenodd;stroke:none" />
      <rect
         y="161.09984"
         x="38.086952"
         height="26.298702"
         width="3.104708"
         id="rect3916"
         style="fill:#000000;fill-opacity:1;fill-rule:evenodd;stroke:none" />
    </g>
    <g
       id="cd0">
      <path
         transform="matrix(1.0606602,0,0,1.0606602,26.437508,-2.7570348)"
         d="m 127.80954,44.082954 c 0,3.124195 -2.53266,5.656855 -5.65685,5.656855 -3.1242,0 -5.65686,-2.53266 -5.65686,-5.656855 0,-3.124194 2.53266,-5.656854 5.65686,-5.656854 3.12419,0 5.65685,2.53266 5.65685,5.656854 z"
         sodipodi:ry="5.6568542"
         sodipodi:rx="5.6568542"
         sodipodi:cy="44.082954"
         sodipodi:cx="122.15269"
         id="path4054"
         style="fill:#f9f9f9;fill-opacity:1;fill-rule:evenodd;stroke:none"
         sodipodi:type="arc" />
      <path
         sodipodi:type="arc"
         style="fill:none;stroke:#000000;stroke-width:1.66425562;stroke-miterlimit:4;stroke-opacity:1;stroke-dasharray:none"
         id="path4056"
         sodipodi:cx="122.15269"
         sodipodi:cy="44.082954"
         sodipodi:rx="5.6568542"
         sodipodi:ry="5.6568542"
         d="m 127.80954,44.082954 c 0,3.124195 -2.53266,5.656855 -5.65685,5.656855 -3.1242,0 -5.65686,-2.53266 -5.65686,-5.656855 0,-3.124194 2.53266,-5.656854 5.65686,-5.656854 3.12419,0 5.65685,2.53266 5.65685,5.656854 z"
         transform="matrix(0.24034769,0,0,0.24034769,126.64088,33.404764)" />
    </g>
    <g
       transform="translate(-27.750002,-8.4999999)"
       style="display:inline"
       id="cd1">
      <path
         transform="matrix(1.0606602,0,0,1.0606602,26.437508,-2.7570348)"
         d="m 127.80954,44.082954 a 5.6568542,5.6568542 0 1 1 -11.31371,0 5.6568542,5.6568542 0 1 1 11.31371,0 z"
         sodipodi:ry="5.6568542"
         sodipodi:rx="5.6568542"
         sodipodi:cy="44.082954"
         sodipodi:cx="122.15269"
         id="path4054-6"
         style="fill:#f9f9f9;fill-opacity:1;fill-rule:evenodd;stroke:none"
         sodipodi:type="arc" />
      <path
         sodipodi:type="arc"
         style="fill:none;stroke:#000000;stroke-width:1.66425562;stroke-miterlimit:4;stroke-opacity:1;stroke-dasharray:none"
         id="path4056-0"
         sodipodi:cx="122.15269"
         sodipodi:cy="44.082954"
         sodipodi:rx="5.6568542"
         sodipodi:ry="5.6568542"
         d="m 127.80954,44.082954 a 5.6568542,5.6568542 0 1 1 -11.31371,0 5.6568542,5.6568542 0 1 1 11.31371,0 z"
         transform="matrix(0.24034769,0,0,0.24034769,126.64088,33.404764)" />
    </g>
  </g>
</svg>
