<?xml version="1.0" encoding="utf-8" ?>
<svg xmlns="http://www.w3.org/2000/svg" version="1.1" width="300" height="200">
    <title>Plateau 2012</title>
    <desc>Plateau de la coupe de France de robotique 2012</desc>
    <g id="background">
        <!-- Mer -->
        <rect width="300" height="200" x="0" y="0" fill="#3b83bd" />
        <!-- Cercles jaunes autour des totems -->
        <circle cx="110" cy="100" r="30" fill="#fad201" />
        <circle cx="190" cy="100" r="30" fill="#fad201" />
        <!-- Rectantgles jaunes entre les deux totems -->
        <rect width="80" height="52" x="110" y="74" fill="#fad201" />
        <!-- Cercles bleu pour recouvrir le rectangle -->
        <circle cx="150" cy="25" r="55" fill="#3b83bd" />
        <circle cx="150" cy="175" r="55" fill="#3b83bd" />
        <!-- Cercles verts autour des totems -->
        <circle cx="110" cy="100" r="20" fill="#61a83b" />
        <circle cx="190" cy="100" r="20" fill="#61a83b" />
        <!-- Le palmier -->
        <circle cx="150" cy="100" r="7.5" fill="#61a83b" />
        <!-- Les chambres des capitaines -->
        <rect width="50" height="50" x="0" y="150" fill="#a52019" />
        <rect width="50" height="50" x="250" y="150" fill="#924e7d" />
        <!-- Les bateaux -->
        <polygon fill="#6c3b2a" points="0,0 32.5,0 40,150 0,150" />
        <polygon fill="#6c3b2a" points="300,0 267.5,0 260,150 300,150" />
        <!-- La carte -->
        <path d="M110,200 A40,40 0 0 1 190,200" fill="#fad201" />
        <path d="M120,200 A30,30 0 0 1 180,200" fill="#61a83b" />
        <!-- Les bandes noires -->
        <rect width="15" height="2" x="50" y="153" />
        <rect width="2" height="155" x="63" y="0" />
        <rect width="15" height="2" x="235" y="153" />
        <rect width="2" height="155" x="235" y="0" />
        <!-- Les couvercles -->
        <rect width="34.3" height="61.1" x="0" y="0" fill="white" fill-opacity="0.4" />
        <rect width="34.3" height="61.1" x="265.7" y="0" fill="white" fill-opacity="0.4" />
    </g>
    <g id="obstacle">
        <!-- Les totems -->
        <rect width="25" height="25" x="97.5" y="87.5" fill="#6c3b2a" />
        <rect width="25" height="25" x="177.5" y="87.5" fill="#6c3b2a" />
        <!-- Les cloisons des chambres des capitaines -->
        <rect width="40" height="1.8" x="0" y="148.2" fill="#4c2b1a" />
        <rect width="40" height="1.8" x="260" y="148.2" fill="#4c2b1a" />
        <!-- Bords des bateaux -->
        <!-- TODO -->
    </g>
</svg>
