<?xml version="1.0" encoding="UTF-8" standalone="no"?>
<!-- Created with Inkscape (http://www.inkscape.org/) -->

<svg
   xmlns:dc="http://purl.org/dc/elements/1.1/"
   xmlns:cc="http://creativecommons.org/ns#"
   xmlns:rdf="http://www.w3.org/1999/02/22-rdf-syntax-ns#"
   xmlns:svg="http://www.w3.org/2000/svg"
   xmlns="http://www.w3.org/2000/svg"
   xmlns:sodipodi="http://sodipodi.sourceforge.net/DTD/sodipodi-0.dtd"
   xmlns:inkscape="http://www.inkscape.org/namespaces/inkscape"
   width="300"
   height="200"
   id="svg2"
   version="1.1"
   inkscape:version="0.48.3.1 r9886"
   sodipodi:docname="plateau2012.svg"
   inkscape:export-filename="/home/martin/Eurobot/ARM/plateau.png"
   inkscape:export-xdpi="96"
   inkscape:export-ydpi="96">
  <sodipodi:namedview
     id="base"
     pagecolor="#ffffff"
     bordercolor="#666666"
     borderopacity="1.0"
     inkscape:pageopacity="0.0"
     inkscape:pageshadow="2"
     inkscape:zoom="2"
     inkscape:cx="184.63301"
     inkscape:cy="79.605298"
     inkscape:document-units="px"
     inkscape:current-layer="layer1"
     showgrid="false"
     showguides="true"
     inkscape:guide-bbox="true"
     inkscape:window-width="1366"
     inkscape:window-height="744"
     inkscape:window-x="0"
     inkscape:window-y="24"
     inkscape:window-maximized="1"
     fit-margin-top="0"
     fit-margin-left="0"
     fit-margin-right="0"
     fit-margin-bottom="0"
     units="px" />
  <defs
     id="defs4" />
  <metadata
     id="metadata7">
    <rdf:RDF>
      <cc:Work
         rdf:about="">
        <dc:format>image/svg+xml</dc:format>
        <dc:type
           rdf:resource="http://purl.org/dc/dcmitype/StillImage" />
        <dc:title />
      </cc:Work>
    </rdf:RDF>
  </metadata>
  <g
     id="layer1"
     inkscape:groupmode="layer"
     inkscape:label="Calque 1"
     transform="translate(0,0.02499555)">
    <g
       id="background">
      <rect
         inkscape:export-ydpi="96"
         inkscape:export-xdpi="96"
         inkscape:export-filename="/home/martin/Eurobot/ARM/pictures/plateau.png"
         style="fill:#3b83bd;fill-opacity:1;fill-rule:evenodd;stroke:none"
         id="rect3020"
         width="300"
         height="200"
         x="0"
         y="-1.5258789e-05" />
      <path
         inkscape:export-ydpi="61"
         inkscape:export-xdpi="61"
         inkscape:export-filename="/home/martin/Eurobot/ARM/pictures/plateau.png"
         style="fill:#6c3b2a;fill-opacity:1;stroke:none"
         d="m 300,-2e-5 0,148.95132 -40.03906,0 L 266.6,-4e-5 z"
         id="path4139"
         inkscape:connector-curvature="0"
         sodipodi:nodetypes="ccccc" />
      <path
         inkscape:export-ydpi="61"
         inkscape:export-xdpi="61"
         inkscape:export-filename="/home/martin/Eurobot/ARM/pictures/plateau.png"
         sodipodi:nodetypes="ccccc"
         inkscape:connector-curvature="0"
         id="path4143"
         d="m 0,-4e-5 0,149.09064 40.0312,0 L 33.39995,-4e-5 z"
         style="fill:#6c3b2a;fill-opacity:1;stroke:none" />
      <path
         inkscape:export-ydpi="61"
         inkscape:export-xdpi="61"
         inkscape:export-filename="/home/martin/Eurobot/ARM/pictures/plateau.png"
         style="fill:#fad201;fill-opacity:1;fill-rule:evenodd;stroke:none"
         d="m 190,129.99998 c 16.56854,0 30,-13.43146 30,-30 0,-16.56854 -13.43146,-30 -30,-30 -4.76403,0 -9.27893,1.11806 -13.28125,3.09375 -7.91016,4.40413 -17.02277,6.90625 -26.71875,6.90625 -9.69598,0 -18.80859,-2.50212 -26.71875,-6.90625 -4.00232,-1.97569 -8.51722,-3.09375 -13.28125,-3.09375 -16.56854,0 -30,13.43146 -30,30 0,16.56854 13.43146,30 30,30 4.76403,0 9.27893,-1.11806 13.28125,-3.09375 7.91016,-4.40413 17.02277,-6.90625 26.71875,-6.90625 9.69598,0 18.80859,2.50212 26.71875,6.90625 4.00232,1.97569 8.51722,3.09375 13.28125,3.09375 z"
         id="path3828-6"
         inkscape:connector-curvature="0" />
      <path
         inkscape:export-ydpi="61"
         inkscape:export-xdpi="61"
         inkscape:export-filename="/home/martin/Eurobot/ARM/pictures/plateau.png"
         transform="matrix(-0.62992126,0,0,-0.62992126,284.33071,658.8108)"
         d="m 181.5,887.11218 c 0,17.53504 -14.21496,31.75 -31.75,31.75 -17.53504,0 -31.75,-14.21496 -31.75,-31.75 0,-17.53504 14.21496,-31.75 31.75,-31.75 17.53504,0 31.75,14.21496 31.75,31.75 z"
         sodipodi:ry="31.75"
         sodipodi:rx="31.75"
         sodipodi:cy="887.11218"
         sodipodi:cx="149.75"
         id="path3830-3"
         style="fill:#57a63f;fill-opacity:0.94117647;fill-rule:evenodd;stroke:none"
         sodipodi:type="arc" />
      <rect
         inkscape:export-ydpi="61"
         inkscape:export-xdpi="61"
         inkscape:export-filename="/home/martin/Eurobot/ARM/pictures/plateau.png"
         y="149.99998"
         x="250"
         height="50"
         width="50"
         id="rect3808"
         style="fill:#924e7d;fill-opacity:1;fill-rule:evenodd;stroke:none" />
      <rect
         inkscape:export-ydpi="61"
         inkscape:export-xdpi="61"
         inkscape:export-filename="/home/martin/Eurobot/ARM/pictures/plateau.png"
         y="149.99998"
         x="0"
         height="50"
         width="50"
         id="rect3808-9"
         style="fill:#a52019;fill-opacity:1;fill-rule:evenodd;stroke:none" />
      <path
         inkscape:export-ydpi="61"
         inkscape:export-xdpi="61"
         inkscape:export-filename="/home/martin/Eurobot/ARM/pictures/plateau.png"
         style="fill:#fad201;fill-opacity:1;fill-rule:evenodd;stroke:none"
         d="m 190,200 c 0,-22.0914 -17.90861,-40 -40,-40 -22.09139,0 -40,17.9086 -40,40 l 80,0 z"
         id="path3828"
         inkscape:connector-curvature="0" />
      <path
         inkscape:export-ydpi="61"
         inkscape:export-xdpi="61"
         inkscape:export-filename="/home/martin/Eurobot/ARM/pictures/plateau.png"
         style="fill:#57a63f;fill-opacity:0.94117647;fill-rule:evenodd;stroke:none"
         d="m 180,200 c 0,-16.5685 -13.43146,-30 -30,-30 -16.56854,0 -30,13.4315 -30,30 l 60,0 z"
         id="path3830"
         inkscape:connector-curvature="0" />
      <path
         inkscape:export-ydpi="61"
         inkscape:export-xdpi="61"
         inkscape:export-filename="/home/martin/Eurobot/ARM/pictures/plateau.png"
         transform="matrix(-0.62992126,0,0,-0.62992126,204.33071,658.8108)"
         d="m 181.5,887.11218 c 0,17.53504 -14.21496,31.75 -31.75,31.75 -17.53504,0 -31.75,-14.21496 -31.75,-31.75 0,-17.53504 14.21496,-31.75 31.75,-31.75 17.53504,0 31.75,14.21496 31.75,31.75 z"
         sodipodi:ry="31.75"
         sodipodi:rx="31.75"
         sodipodi:cy="887.11218"
         sodipodi:cx="149.75"
         id="path3830-3-3"
         style="fill:#57a63f;fill-opacity:0.94117647;fill-rule:evenodd;stroke:none"
         sodipodi:type="arc" />
      <path
         inkscape:export-ydpi="61"
         inkscape:export-xdpi="61"
         inkscape:export-filename="/home/martin/Eurobot/ARM/pictures/plateau.png"
         style="fill:none;stroke:#000000;stroke-width:2;stroke-linecap:butt;stroke-linejoin:miter;stroke-miterlimit:4;stroke-opacity:1;stroke-dasharray:none"
         d="M 250,155 235,155 235,-4e-5"
         id="path3870"
         inkscape:connector-curvature="0"
         sodipodi:nodetypes="ccc" />
      <path
         inkscape:export-ydpi="61"
         inkscape:export-xdpi="61"
         inkscape:export-filename="/home/martin/Eurobot/ARM/pictures/plateau.png"
         style="fill:none;stroke:#000000;stroke-width:2;stroke-linecap:butt;stroke-linejoin:miter;stroke-miterlimit:4;stroke-opacity:1;stroke-dasharray:none"
         d="M 50,155 65,155 65,-4e-5"
         id="path3870-2"
         inkscape:connector-curvature="0"
         sodipodi:nodetypes="ccc" />
      <path
         inkscape:export-ydpi="61"
         inkscape:export-xdpi="61"
         inkscape:export-filename="/home/martin/Eurobot/ARM/pictures/plateau.png"
         transform="matrix(-0.23622047,0,0,-0.23622047,185.37402,309.5541)"
         d="m 181.5,887.11218 c 0,17.53504 -14.21496,31.75 -31.75,31.75 -17.53504,0 -31.75,-14.21496 -31.75,-31.75 0,-17.53504 14.21496,-31.75 31.75,-31.75 17.53504,0 31.75,14.21496 31.75,31.75 z"
         sodipodi:ry="31.75"
         sodipodi:rx="31.75"
         sodipodi:cy="887.11218"
         sodipodi:cx="149.75"
         id="path3830-3-3-3"
         style="fill:#57a63f;fill-opacity:0.94117647;fill-rule:evenodd;stroke:none"
         sodipodi:type="arc" />
      <rect
         inkscape:export-ydpi="61"
         inkscape:export-xdpi="61"
         inkscape:export-filename="/home/martin/Eurobot/ARM/pictures/plateau.png"
         style="fill:#6c3b2a;fill-opacity:1;stroke:none"
         id="rect3995"
         width="40"
         height="1.8"
         x="260"
         y="148.19998"
         ry="0" />
      <rect
         inkscape:export-ydpi="61"
         inkscape:export-xdpi="61"
         inkscape:export-filename="/home/martin/Eurobot/ARM/pictures/plateau.png"
         style="fill:#6c3b2a;fill-opacity:1;stroke:none"
         id="rect3995-3"
         width="40"
         height="1.8"
         x="0"
         y="148.19998"
         ry="0" />
      <rect
         inkscape:export-ydpi="61"
         inkscape:export-xdpi="61"
         inkscape:export-filename="/home/martin/Eurobot/ARM/pictures/plateau.png"
         style="fill:#6c3b2a;fill-opacity:1;stroke:none"
         id="rect3995-2"
         width="75"
         height="1.8"
         x="-12.332606"
         y="-267.2146"
         ry="0"
         inkscape:transform-center-x="1.7347172"
         transform="matrix(-0.04625884,0.99892949,-0.99892949,-0.04625884,0,0)"
         inkscape:transform-center-y="37.459871" />
      <rect
         style="fill:#a52019;fill-opacity:1;fill-rule:evenodd;stroke:none"
         id="rect4033"
         width="2.2"
         height="2.2"
         x="188.3"
         y="-6.8664551e-05" />
      <rect
         style="fill:#924e7d;fill-opacity:1;fill-rule:evenodd;stroke:none"
         id="rect4033-4"
         width="2.2"
         height="2.2"
         x="233.90001"
         y="-6.8664551e-05" />
      <rect
         y="-6.8664551e-05"
         x="-111.7"
         height="2.2"
         width="2.2"
         id="rect4062"
         style="fill:#924e7d;fill-opacity:1;fill-rule:evenodd;stroke:none"
         transform="scale(-1,1)" />
      <rect
         y="-6.8664551e-05"
         x="63.899994"
         height="2.2"
         width="2.2"
         id="rect4064"
         style="fill:#a52019;fill-opacity:1;fill-rule:evenodd;stroke:none" />
      <rect
         inkscape:export-ydpi="61"
         inkscape:export-xdpi="61"
         inkscape:export-filename="/home/martin/Eurobot/ARM/pictures/plateau.png"
         style="fill:#6c3b2a;fill-opacity:1;fill-rule:evenodd;stroke:none"
         id="rect4119"
         width="25"
         height="25"
         x="177.5"
         y="87.499969" />
      <rect
         inkscape:export-ydpi="61"
         inkscape:export-xdpi="61"
         inkscape:export-filename="/home/martin/Eurobot/ARM/pictures/plateau.png"
         style="fill:#6c3b2a;fill-opacity:1;fill-rule:evenodd;stroke:none"
         id="rect4119-3"
         width="25"
         height="25"
         x="97.5"
         y="87.499969" />
      <rect
         inkscape:export-ydpi="61"
         inkscape:export-xdpi="61"
         inkscape:export-filename="/home/martin/Eurobot/ARM/pictures/plateau.png"
         inkscape:transform-center-y="37.459782"
         transform="matrix(0.04625884,0.99892949,0.99892949,-0.04625884,0,0)"
         inkscape:transform-center-x="-1.7347082"
         ry="0"
         y="32.464237"
         x="1.5449542"
         height="1.8"
         width="75"
         id="rect4147"
         style="fill:#6c3b2a;fill-opacity:1;stroke:none" />
      <rect
         inkscape:export-ydpi="61"
         inkscape:export-xdpi="61"
         inkscape:export-filename="/home/martin/Eurobot/ARM/pictures/plateau.png"
         style="opacity:0.5;fill:#ffffff;fill-opacity:1;fill-rule:evenodd;stroke:none"
         id="rect3868"
         width="32.5"
         height="61"
         x="267.5"
         y="-7.6293945e-05" />
      <rect
         inkscape:export-ydpi="61"
         inkscape:export-xdpi="61"
         inkscape:export-filename="/home/martin/Eurobot/ARM/pictures/plateau.png"
         style="opacity:0.5;fill:#ffffff;fill-opacity:1;fill-rule:evenodd;stroke:none"
         id="rect3868-7"
         width="32.5"
         height="61"
         x="0"
         y="5.3405762e-05" />
      <rect
         inkscape:export-ydpi="61"
         inkscape:export-xdpi="61"
         inkscape:export-filename="/home/martin/Eurobot/ARM/pictures/plateau.png"
         style="fill:#3b83bd;fill-opacity:1;fill-rule:evenodd;stroke:none"
         id="rect4494"
         width="40"
         height="3"
         x="130"
         y="197" />
    </g>
    <g
       id="g3211">
      <rect
         transform="matrix(0,-1,1,0,0,0)"
         y="320"
         x="-119.99998"
         height="30"
         width="30"
         id="rect3049"
         style="fill:#000000;fill-opacity:1;fill-rule:evenodd;stroke:none" />
      <rect
         transform="matrix(0,1,-1,0,0,0)"
         y="-345"
         x="55.999981"
         height="16"
         width="22"
         id="rect3049-1"
         style="fill:#000000;fill-opacity:1;fill-rule:evenodd;stroke:none" />
      <rect
         transform="matrix(0,-1,1,0,0,0)"
         y="341"
         x="-116.99998"
         height="9"
         width="24"
         id="rect3049-1-8"
         style="fill:#ff0000;fill-opacity:1;fill-rule:evenodd;stroke:none" />
      <path
         inkscape:connector-curvature="0"
         id="path3087"
         d="m 341,116.99998 2,0 -2,-2 0,2 z"
         style="fill:#0000ff;stroke:none" />
      <path
         inkscape:connector-curvature="0"
         id="path3087-4"
         d="m 341,92.99998 2,0 -2,2 0,-2 z"
         style="fill:#0000ff;stroke:none" />
      <path
         inkscape:connector-curvature="0"
         id="path3087-4-0"
         d="m 320,89.99998 4,0 -4,4 0,-4 z"
         style="fill:#0000ff;stroke:none" />
      <path
         inkscape:connector-curvature="0"
         id="path3087-4-0-6"
         d="m 320,119.99998 4,0 -4,-4 0,4 z"
         style="fill:#0000ff;stroke:none" />
      <path
         inkscape:export-ydpi="96"
         inkscape:export-xdpi="96"
         inkscape:export-filename="/home/martin/Eurobot/minigui/gros.png"
         inkscape:connector-curvature="0"
         id="rect3049-3"
         d="m 363.71751,115.93843 4,4 24.5,0 c 0.82843,0 1.5,-0.67157 1.5,-1.5 0,-0.82843 -0.67157,-1.5 -1.5,-1.5 l -5.5,0 -2,-2 0,-20 2,-2 5.5,0 c 0.82843,0 1.5,-0.67157 1.5,-1.5 0,-0.82843 -0.67157,-1.5 -1.5,-1.5 l -24.5,0 -4,4 0,22 z"
         style="fill:#000000;fill-opacity:1;fill-rule:evenodd;stroke:none" />
      <path
         inkscape:connector-curvature="0"
         id="path3087-4-0-2"
         d="m 345,77.99998 -4,0 4,-7 0,7 z"
         style="fill:#0000ff;stroke:none" />
      <path
         style="fill:#0000ff;stroke:none"
         d="m 329,55.99998 4,0 -4,7 0,-7 z"
         id="path4039-2"
         inkscape:connector-curvature="0" />
      <path
         style="fill:#0000ff;stroke:none"
         d="m 329,77.99998 4,0 -4,-7 0,7 z"
         id="path4039-5"
         inkscape:connector-curvature="0" />
      <path
         style="fill:#0000ff;stroke:none"
         d="m 345,55.99998 -4,0 4,7 0,-7 z"
         id="path4039"
         inkscape:connector-curvature="0" />
      <rect
         transform="matrix(0,1,-1,0,0,0)"
         y="-347"
         x="75.999985"
         height="6"
         width="2"
         id="rect3049-1-3-8"
         style="fill:#ff0000;fill-opacity:1;fill-rule:evenodd;stroke:none" />
      <rect
         transform="matrix(0,1,-1,0,0,0)"
         y="-347"
         x="55.999981"
         height="6"
         width="2"
         id="rect3049-1-3"
         style="fill:#ff0000;fill-opacity:1;fill-rule:evenodd;stroke:none" />
      <path
         inkscape:connector-curvature="0"
         inkscape:export-ydpi="96"
         inkscape:export-xdpi="96"
         inkscape:export-filename="/home/martin/Eurobot/minigui/petit.png"
         id="rect3049-1-0"
         d="m 366,57.74998 -4,7 0,8 4,7 8,0 6,0 0,-2 -4.84375,0 2.84375,-5 0,-8 -2.84375,-5 4.84375,0 0,-2 -6,0 -8,0 z"
         style="fill:#000000;fill-opacity:1;fill-rule:evenodd;stroke:none" />
    </g>
    <g
       id="opponent"
       transform="translate(43.958371,-846.42717)">
      <path
         inkscape:export-ydpi="96"
         inkscape:export-xdpi="96"
         inkscape:export-filename="/home/martin/Eurobot/minigui/robot.png"
         inkscape:connector-curvature="0"
         id="path3908"
         d="m 325.07826,847.30207 0,39.375 37.875,0 0,-39.375 z"
         style="fill:#ffffff;fill-opacity:1;fill-rule:evenodd;stroke:none"
         sodipodi:nodetypes="ccccc" />
      <path
         style="fill:#de2f26;fill-opacity:1;fill-rule:evenodd;stroke:none"
         d="m 324.07826,847.30207 0,40 40,0 0,-40 -20,0 1.375,2.375 12.65625,21.875 1.375,2.375 -2.75,0 -7.28125,0 0,10.75 -10.75,0 0,-10.75 -7.28125,0 -2.75,0 1.375,-2.375 12.65625,-21.875 1.375,-2.375 -20,0 z"
         id="path3910"
         inkscape:connector-curvature="0"
         inkscape:export-filename="/home/martin/Eurobot/minigui/robot.png"
         inkscape:export-xdpi="96"
         inkscape:export-ydpi="96" />
    </g>
    <g
       id="robot"
       transform="translate(302.6417,-208.5965)">
      <path
         sodipodi:nodetypes="ccccc"
         style="fill:#ffffff;fill-opacity:1;fill-rule:evenodd;stroke:none"
         d="m 14.485548,209.8103 0,39.375 37.875,0 0,-39.375 z"
         id="path3898"
         inkscape:connector-curvature="0"
         inkscape:export-filename="/home/martin/Eurobot/minigui/robot.png"
         inkscape:export-xdpi="96"
         inkscape:export-ydpi="96" />
      <path
         inkscape:export-ydpi="96"
         inkscape:export-xdpi="96"
         inkscape:export-filename="/home/martin/Eurobot/minigui/robot.png"
         inkscape:connector-curvature="0"
         id="path3904"
         d="m 13.485548,209.8103 0,40 40,0 0,-40 -20,0 1.375,2.375 12.65625,21.875 1.375,2.375 -2.75,0 -7.28125,0 0,10.75 -10.75,0 0,-10.75 -7.28125,0 -2.75,0 1.375,-2.375 12.65625,-21.875 1.375,-2.375 -20,0 z"
         style="fill:#a85c91;fill-opacity:1;fill-rule:evenodd;stroke:none" />
    </g>
  </g>
</svg>
